<svg width="692" height="531" viewBox="0 0 692 531" fill="none" xmlns="http://www.w3.org/2000/svg">
<path d="M256.428 7.12652C257.697 2.89669 261.59 0 266.007 0H495.126C501.825 0 506.629 6.45736 504.704 12.8735L435.704 242.873C434.435 247.103 430.542 250 426.126 250H197.007C190.308 250 185.503 243.543 187.428 237.127L256.428 7.12652Z" fill="white"/>
<path d="M287.21 174.639L263.834 250H197.007C190.308 250 185.503 243.543 187.428 237.127L206.273 174.309L287.21 174.639Z" fill="url(#paint0_linear_1_184)"/>
<path d="M373.102 174.988L349.834 250H266.976L290.348 174.651L373.102 174.988Z" fill="url(#paint1_linear_1_184)"/>
<path d="M455.968 175.326L435.704 242.873C434.435 247.103 430.542 250 426.126 250H352.976L376.24 175.001L455.968 175.326Z" fill="url(#paint2_linear_1_184)"/>
<path d="M484.946 78.7334L456.867 172.329L377.169 172.004L406.201 78.4131L484.946 78.7334Z" fill="url(#paint3_linear_1_184)"/>
<path d="M403.063 78.4004L374.032 171.991L291.278 171.654L320.309 78.0625L403.063 78.4004Z" fill="url(#paint4_linear_1_184)"/>
<path d="M317.171 78.0498L288.14 171.642L207.172 171.312L235.25 77.7158L317.171 78.0498Z" fill="url(#paint5_linear_1_184)"/>
<path d="M495.126 0C501.825 0 506.629 6.45736 504.704 12.8735L485.845 75.7363L407.13 75.416L430.525 0H495.126Z" fill="url(#paint6_linear_1_184)"/>
<path d="M403.993 75.4023L321.239 75.0654L344.525 0H427.383L403.993 75.4023Z" fill="url(#paint7_linear_1_184)"/>
<path d="M318.101 75.0527L236.15 74.7188L256.428 7.12652C257.697 2.89669 261.59 0 266.007 0H341.383L318.101 75.0527Z" fill="url(#paint8_linear_1_184)"/>
<path d="M520.121 84.8129C521.39 80.583 525.283 77.6862 529.699 77.6862H681.126C687.825 77.6862 692.629 84.1435 690.704 90.5596L645.012 242.873C643.743 247.103 639.85 250 635.434 250H484.006C477.308 250 472.503 243.543 474.428 237.127L520.121 84.8129Z" fill="white"/>
<path d="M541.369 198.519L525.4 250L484.006 250C477.308 250 472.503 243.543 474.428 237.127L486.077 198.294L541.369 198.519Z" fill="url(#paint9_linear_1_184)"/>
<path d="M600.568 198.76L584.675 250H528.542L544.506 198.532L600.568 198.76Z" fill="url(#paint10_linear_1_184)"/>
<path d="M658.174 198.997L645.012 242.873C643.743 247.103 639.85 250 635.434 250L587.816 250L603.706 198.774L658.174 198.997Z" fill="url(#paint11_linear_1_184)"/>
<path d="M678.145 132.42L659.073 196L604.635 195.778L624.355 132.2L678.145 132.42Z" fill="url(#paint12_linear_1_184)"/>
<path d="M621.219 132.187L601.498 195.764L545.435 195.537L565.156 131.959L621.219 132.187Z" fill="url(#paint13_linear_1_184)"/>
<path d="M562.019 131.946L542.298 195.524L486.976 195.299L506.05 131.717L562.019 131.946Z" fill="url(#paint14_linear_1_184)"/>
<path d="M681.126 77.6862C687.825 77.6862 692.629 84.1435 690.704 90.5596L679.045 129.424L625.285 129.204L641.266 77.6862H681.126Z" fill="url(#paint15_linear_1_184)"/>
<path d="M622.148 129.191L566.085 128.963L581.991 77.6862H638.125L622.148 129.191Z" fill="url(#paint16_linear_1_184)"/>
<path d="M562.948 128.95L506.948 128.721L520.121 84.8129C521.39 80.583 525.283 77.6862 529.699 77.6862H578.851L562.948 128.95Z" fill="url(#paint17_linear_1_184)"/>
<path d="M46.3283 288.127C47.5972 283.897 51.4905 281 55.9066 281H208.026C214.725 281 219.529 287.457 217.604 293.873L171.704 446.873C170.435 451.103 166.542 454 162.126 454H10.0066C3.30793 454 -1.49654 447.543 0.428294 441.127L46.3283 288.127Z" fill="white"/>
<path d="M67.6606 402.309L51.6274 454H10.0066C3.30793 454 -1.49654 447.543 0.428294 441.127L12.1411 402.082L67.6606 402.309Z" fill="url(#paint18_linear_1_184)"/>
<path d="M127.097 402.552L111.139 454H54.769L70.7983 402.322L127.097 402.552Z" fill="url(#paint19_linear_1_184)"/>
<path d="M184.929 402.788L171.704 446.873C170.435 451.103 166.542 454 162.126 454H114.281L130.235 402.564L184.929 402.788Z" fill="url(#paint20_linear_1_184)"/>
<path d="M204.982 335.945L185.829 399.791L131.165 399.567L150.968 335.725L204.982 335.945Z" fill="url(#paint21_linear_1_184)"/>
<path d="M147.831 335.712L128.027 399.555L71.728 399.325L91.5317 335.482L147.831 335.712Z" fill="url(#paint22_linear_1_184)"/>
<path d="M88.394 335.47L68.5903 399.312L13.0405 399.086L32.1938 335.24L88.394 335.47Z" fill="url(#paint23_linear_1_184)"/>
<path d="M208.026 281C214.725 281 219.529 287.457 217.604 293.873L205.88 332.948L151.897 332.729L167.944 281H208.026Z" fill="url(#paint24_linear_1_184)"/>
<path d="M148.76 332.716L92.4604 332.486L108.432 281H164.803L148.76 332.716Z" fill="url(#paint25_linear_1_184)"/>
<path d="M89.3237 332.474L33.0933 332.244L46.3283 288.127C47.5972 283.897 51.4905 281 55.9066 281H105.291L89.3237 332.474Z" fill="url(#paint26_linear_1_184)"/>
<path d="M256.328 288.127C257.597 283.897 261.49 281 265.907 281H495.026C501.725 281 506.529 287.457 504.604 293.873L435.604 523.873C434.335 528.103 430.442 531 426.026 531H196.907C190.208 531 185.403 524.543 187.328 518.127L256.328 288.127Z" fill="white"/>
<path d="M287.11 455.639L263.734 531H196.907C190.208 531 185.403 524.543 187.328 518.127L206.173 455.309L287.11 455.639Z" fill="url(#paint27_linear_1_184)"/>
<path d="M373.002 455.988L349.734 531H266.876L290.248 455.651L373.002 455.988Z" fill="url(#paint28_linear_1_184)"/>
<path d="M455.868 456.326L435.604 523.873C434.335 528.103 430.442 531 426.026 531H352.876L376.14 456.001L455.868 456.326Z" fill="url(#paint29_linear_1_184)"/>
<path d="M484.846 359.733L456.767 453.329L377.069 453.004L406.101 359.413L484.846 359.733Z" fill="url(#paint30_linear_1_184)"/>
<path d="M402.963 359.4L373.932 452.991L291.178 452.654L320.209 359.062L402.963 359.4Z" fill="url(#paint31_linear_1_184)"/>
<path d="M317.071 359.05L288.04 452.642L207.072 452.312L235.15 358.716L317.071 359.05Z" fill="url(#paint32_linear_1_184)"/>
<path d="M495.026 281C501.725 281 506.529 287.457 504.604 293.873L485.745 356.736L407.03 356.416L430.425 281H495.026Z" fill="url(#paint33_linear_1_184)"/>
<path d="M403.893 356.402L321.139 356.065L344.425 281H427.283L403.893 356.402Z" fill="url(#paint34_linear_1_184)"/>
<path d="M318.001 356.053L236.05 355.719L256.328 288.127C257.597 283.897 261.49 281 265.907 281H341.283L318.001 356.053Z" fill="url(#paint35_linear_1_184)"/>
<defs>
<linearGradient id="paint0_linear_1_184" x1="346.466" y1="290" x2="346.466" y2="534.5" gradientUnits="userSpaceOnUse">
<stop offset="0.0001" stop-color="#14407D"/>
<stop offset="1" stop-color="#333132"/>
</linearGradient>
<linearGradient id="paint1_linear_1_184" x1="346.466" y1="290" x2="346.466" y2="534.5" gradientUnits="userSpaceOnUse">
<stop offset="0.0001" stop-color="#14407D"/>
<stop offset="1" stop-color="#333132"/>
</linearGradient>
<linearGradient id="paint2_linear_1_184" x1="346.466" y1="290" x2="346.466" y2="534.5" gradientUnits="userSpaceOnUse">
<stop offset="0.0001" stop-color="#14407D"/>
<stop offset="1" stop-color="#333132"/>
</linearGradient>
<linearGradient id="paint3_linear_1_184" x1="346.466" y1="290" x2="346.466" y2="534.5" gradientUnits="userSpaceOnUse">
<stop offset="0.0001" stop-color="#14407D"/>
<stop offset="1" stop-color="#333132"/>
</linearGradient>
<linearGradient id="paint4_linear_1_184" x1="346.466" y1="290" x2="346.466" y2="534.5" gradientUnits="userSpaceOnUse">
<stop offset="0.0001" stop-color="#14407D"/>
<stop offset="1" stop-color="#333132"/>
</linearGradient>
<linearGradient id="paint5_linear_1_184" x1="346.466" y1="290" x2="346.466" y2="534.5" gradientUnits="userSpaceOnUse">
<stop offset="0.0001" stop-color="#14407D"/>
<stop offset="1" stop-color="#333132"/>
</linearGradient>
<linearGradient id="paint6_linear_1_184" x1="346.466" y1="290" x2="346.466" y2="534.5" gradientUnits="userSpaceOnUse">
<stop offset="0.0001" stop-color="#14407D"/>
<stop offset="1" stop-color="#333132"/>
</linearGradient>
<linearGradient id="paint7_linear_1_184" x1="346.466" y1="290" x2="346.466" y2="534.5" gradientUnits="userSpaceOnUse">
<stop offset="0.0001" stop-color="#14407D"/>
<stop offset="1" stop-color="#333132"/>
</linearGradient>
<linearGradient id="paint8_linear_1_184" x1="346.466" y1="290" x2="346.466" y2="534.5" gradientUnits="userSpaceOnUse">
<stop offset="0.0001" stop-color="#14407D"/>
<stop offset="1" stop-color="#333132"/>
</linearGradient>
<linearGradient id="paint9_linear_1_184" x1="346.466" y1="290" x2="346.466" y2="534.5" gradientUnits="userSpaceOnUse">
<stop offset="0.0001" stop-color="#14407D"/>
<stop offset="1" stop-color="#333132"/>
</linearGradient>
<linearGradient id="paint10_linear_1_184" x1="346.466" y1="290" x2="346.466" y2="534.5" gradientUnits="userSpaceOnUse">
<stop offset="0.0001" stop-color="#14407D"/>
<stop offset="1" stop-color="#333132"/>
</linearGradient>
<linearGradient id="paint11_linear_1_184" x1="346.466" y1="290" x2="346.466" y2="534.5" gradientUnits="userSpaceOnUse">
<stop offset="0.0001" stop-color="#14407D"/>
<stop offset="1" stop-color="#333132"/>
</linearGradient>
<linearGradient id="paint12_linear_1_184" x1="346.466" y1="290" x2="346.466" y2="534.5" gradientUnits="userSpaceOnUse">
<stop offset="0.0001" stop-color="#14407D"/>
<stop offset="1" stop-color="#333132"/>
</linearGradient>
<linearGradient id="paint13_linear_1_184" x1="346.466" y1="290" x2="346.466" y2="534.5" gradientUnits="userSpaceOnUse">
<stop offset="0.0001" stop-color="#14407D"/>
<stop offset="1" stop-color="#333132"/>
</linearGradient>
<linearGradient id="paint14_linear_1_184" x1="346.466" y1="290" x2="346.466" y2="534.5" gradientUnits="userSpaceOnUse">
<stop offset="0.0001" stop-color="#14407D"/>
<stop offset="1" stop-color="#333132"/>
</linearGradient>
<linearGradient id="paint15_linear_1_184" x1="346.466" y1="290" x2="346.466" y2="534.5" gradientUnits="userSpaceOnUse">
<stop offset="0.0001" stop-color="#14407D"/>
<stop offset="1" stop-color="#333132"/>
</linearGradient>
<linearGradient id="paint16_linear_1_184" x1="346.466" y1="290" x2="346.466" y2="534.5" gradientUnits="userSpaceOnUse">
<stop offset="0.0001" stop-color="#14407D"/>
<stop offset="1" stop-color="#333132"/>
</linearGradient>
<linearGradient id="paint17_linear_1_184" x1="346.466" y1="290" x2="346.466" y2="534.5" gradientUnits="userSpaceOnUse">
<stop offset="0.0001" stop-color="#14407D"/>
<stop offset="1" stop-color="#333132"/>
</linearGradient>
<linearGradient id="paint18_linear_1_184" x1="346.466" y1="290" x2="346.466" y2="534.5" gradientUnits="userSpaceOnUse">
<stop offset="0.0001" stop-color="#14407D"/>
<stop offset="1" stop-color="#333132"/>
</linearGradient>
<linearGradient id="paint19_linear_1_184" x1="346.466" y1="290" x2="346.466" y2="534.5" gradientUnits="userSpaceOnUse">
<stop offset="0.0001" stop-color="#14407D"/>
<stop offset="1" stop-color="#333132"/>
</linearGradient>
<linearGradient id="paint20_linear_1_184" x1="346.466" y1="290" x2="346.466" y2="534.5" gradientUnits="userSpaceOnUse">
<stop offset="0.0001" stop-color="#14407D"/>
<stop offset="1" stop-color="#333132"/>
</linearGradient>
<linearGradient id="paint21_linear_1_184" x1="346.466" y1="290" x2="346.466" y2="534.5" gradientUnits="userSpaceOnUse">
<stop offset="0.0001" stop-color="#14407D"/>
<stop offset="1" stop-color="#333132"/>
</linearGradient>
<linearGradient id="paint22_linear_1_184" x1="346.466" y1="290" x2="346.466" y2="534.5" gradientUnits="userSpaceOnUse">
<stop offset="0.0001" stop-color="#14407D"/>
<stop offset="1" stop-color="#333132"/>
</linearGradient>
<linearGradient id="paint23_linear_1_184" x1="346.466" y1="290" x2="346.466" y2="534.5" gradientUnits="userSpaceOnUse">
<stop offset="0.0001" stop-color="#14407D"/>
<stop offset="1" stop-color="#333132"/>
</linearGradient>
<linearGradient id="paint24_linear_1_184" x1="346.466" y1="290" x2="346.466" y2="534.5" gradientUnits="userSpaceOnUse">
<stop offset="0.0001" stop-color="#14407D"/>
<stop offset="1" stop-color="#333132"/>
</linearGradient>
<linearGradient id="paint25_linear_1_184" x1="346.466" y1="290" x2="346.466" y2="534.5" gradientUnits="userSpaceOnUse">
<stop offset="0.0001" stop-color="#14407D"/>
<stop offset="1" stop-color="#333132"/>
</linearGradient>
<linearGradient id="paint26_linear_1_184" x1="346.466" y1="290" x2="346.466" y2="534.5" gradientUnits="userSpaceOnUse">
<stop offset="0.0001" stop-color="#14407D"/>
<stop offset="1" stop-color="#333132"/>
</linearGradient>
<linearGradient id="paint27_linear_1_184" x1="346.466" y1="290" x2="346.466" y2="534.5" gradientUnits="userSpaceOnUse">
<stop offset="0.0001" stop-color="#14407D"/>
<stop offset="1" stop-color="#333132"/>
</linearGradient>
<linearGradient id="paint28_linear_1_184" x1="346.466" y1="290" x2="346.466" y2="534.5" gradientUnits="userSpaceOnUse">
<stop offset="0.0001" stop-color="#14407D"/>
<stop offset="1" stop-color="#333132"/>
</linearGradient>
<linearGradient id="paint29_linear_1_184" x1="346.466" y1="290" x2="346.466" y2="534.5" gradientUnits="userSpaceOnUse">
<stop offset="0.0001" stop-color="#14407D"/>
<stop offset="1" stop-color="#333132"/>
</linearGradient>
<linearGradient id="paint30_linear_1_184" x1="346.466" y1="290" x2="346.466" y2="534.5" gradientUnits="userSpaceOnUse">
<stop offset="0.0001" stop-color="#14407D"/>
<stop offset="1" stop-color="#333132"/>
</linearGradient>
<linearGradient id="paint31_linear_1_184" x1="346.466" y1="290" x2="346.466" y2="534.5" gradientUnits="userSpaceOnUse">
<stop offset="0.0001" stop-color="#14407D"/>
<stop offset="1" stop-color="#333132"/>
</linearGradient>
<linearGradient id="paint32_linear_1_184" x1="346.466" y1="290" x2="346.466" y2="534.5" gradientUnits="userSpaceOnUse">
<stop offset="0.0001" stop-color="#14407D"/>
<stop offset="1" stop-color="#333132"/>
</linearGradient>
<linearGradient id="paint33_linear_1_184" x1="346.466" y1="290" x2="346.466" y2="534.5" gradientUnits="userSpaceOnUse">
<stop offset="0.0001" stop-color="#14407D"/>
<stop offset="1" stop-color="#333132"/>
</linearGradient>
<linearGradient id="paint34_linear_1_184" x1="346.466" y1="290" x2="346.466" y2="534.5" gradientUnits="userSpaceOnUse">
<stop offset="0.0001" stop-color="#14407D"/>
<stop offset="1" stop-color="#333132"/>
</linearGradient>
<linearGradient id="paint35_linear_1_184" x1="346.466" y1="290" x2="346.466" y2="534.5" gradientUnits="userSpaceOnUse">
<stop offset="0.0001" stop-color="#14407D"/>
<stop offset="1" stop-color="#333132"/>
</linearGradient>
</defs>
</svg>
